<mxfile host="app.diagrams.net" modified="2024-07-21T12:03:53.724Z" agent="Mozilla/5.0 (Windows NT 10.0; Win64; x64) AppleWebKit/537.36 (KHTML, like Gecko) Chrome/126.0.0.0 Safari/537.36" etag="kJWibpxDal-jgjr465uW" border="50" scale="3" compressed="false" locked="false" version="24.7.2" type="github">
  <diagram name="Blank" id="YmL12bMKpDGza6XwsDPr">
    <mxGraphModel dx="1280" dy="1672" grid="0" gridSize="10" guides="1" tooltips="1" connect="1" arrows="1" fold="1" page="0" pageScale="1" pageWidth="827" pageHeight="1169" background="none" math="1" shadow="0">
      <root>
        <mxCell id="X5NqExCQtvZxIxQ7pmgY-0" />
        <mxCell id="1" parent="X5NqExCQtvZxIxQ7pmgY-0" />
        <mxCell id="V-lV2F8jwq8Me4-6kI_O-103" value="" style="edgeStyle=orthogonalEdgeStyle;rounded=0;orthogonalLoop=1;jettySize=auto;html=1;curved=1;endArrow=none;endFill=0;strokeWidth=2;" edge="1" parent="1" source="V-lV2F8jwq8Me4-6kI_O-7">
          <mxGeometry relative="1" as="geometry">
            <mxPoint x="656" y="442" as="targetPoint" />
            <Array as="points">
              <mxPoint x="353" y="459" />
              <mxPoint x="447" y="459" />
              <mxPoint x="447" y="429" />
              <mxPoint x="544" y="429" />
              <mxPoint x="544" y="421" />
              <mxPoint x="587" y="421" />
              <mxPoint x="587" y="442" />
            </Array>
          </mxGeometry>
        </mxCell>
        <mxCell id="V-lV2F8jwq8Me4-6kI_O-104" value="Trascriptomic regulationi" style="edgeLabel;html=1;align=center;verticalAlign=middle;resizable=0;points=[];fontSize=16;" vertex="1" connectable="0" parent="V-lV2F8jwq8Me4-6kI_O-103">
          <mxGeometry x="0.0081" y="-3" relative="1" as="geometry">
            <mxPoint as="offset" />
          </mxGeometry>
        </mxCell>
        <mxCell id="V-lV2F8jwq8Me4-6kI_O-106" value="" style="edgeStyle=orthogonalEdgeStyle;rounded=0;orthogonalLoop=1;jettySize=auto;html=1;curved=1;endArrow=none;endFill=0;entryX=0.396;entryY=0.531;entryDx=0;entryDy=0;entryPerimeter=0;" edge="1" parent="1" source="V-lV2F8jwq8Me4-6kI_O-105" target="V-lV2F8jwq8Me4-6kI_O-105">
          <mxGeometry relative="1" as="geometry">
            <mxPoint x="388" y="190" as="targetPoint" />
            <Array as="points" />
          </mxGeometry>
        </mxCell>
        <mxCell id="V-lV2F8jwq8Me4-6kI_O-7" value="&lt;font face=&quot;Comic Sans MS&quot;&gt;GBCs align with fetal neural cells&lt;/font&gt;" style="ellipse;whiteSpace=wrap;html=1;align=center;container=1;recursiveResize=0;treeFolding=1;strokeWidth=2;fillColor=#f8cecc;strokeColor=#b85450;" vertex="1" parent="1">
          <mxGeometry x="299" y="371" width="108" height="53" as="geometry" />
        </mxCell>
        <mxCell id="V-lV2F8jwq8Me4-6kI_O-9" value="" style="edgeStyle=entityRelationEdgeStyle;startArrow=none;endArrow=none;segment=10;curved=1;strokeWidth=2;strokeColor=#660000;rounded=0;fontSize=12;startSize=8;endSize=8;entryX=0;entryY=0.5;entryDx=0;entryDy=0;" edge="1" parent="1" source="V-lV2F8jwq8Me4-6kI_O-7" target="V-lV2F8jwq8Me4-6kI_O-109">
          <mxGeometry relative="1" as="geometry">
            <mxPoint x="189" y="374.5" as="sourcePoint" />
            <mxPoint x="615" y="209" as="targetPoint" />
          </mxGeometry>
        </mxCell>
        <mxCell id="V-lV2F8jwq8Me4-6kI_O-10" value="Fig.1 Trajectories alignments" style="text;html=1;resizable=0;points=[];align=center;verticalAlign=middle;labelBackgroundColor=none;rotation=-60;fontFamily=Comic Sans MS;fontSize=16;" vertex="1" connectable="0" parent="V-lV2F8jwq8Me4-6kI_O-9">
          <mxGeometry x="0.0245" y="2" relative="1" as="geometry">
            <mxPoint x="-4" y="-11" as="offset" />
          </mxGeometry>
        </mxCell>
        <mxCell id="V-lV2F8jwq8Me4-6kI_O-21" value="" style="edgeStyle=entityRelationEdgeStyle;startArrow=none;endArrow=none;segment=10;curved=1;strokeWidth=2;strokeColor=#000099;rounded=0;fontSize=12;startSize=8;endSize=8;exitX=0;exitY=1;exitDx=0;exitDy=0;" edge="1" parent="1" source="V-lV2F8jwq8Me4-6kI_O-7">
          <mxGeometry relative="1" as="geometry">
            <mxPoint x="187" y="397.5" as="sourcePoint" />
            <mxPoint x="35" y="503" as="targetPoint" />
          </mxGeometry>
        </mxCell>
        <mxCell id="V-lV2F8jwq8Me4-6kI_O-22" value="Spacial interaction" style="text;html=1;resizable=0;points=[];align=center;verticalAlign=middle;labelBackgroundColor=none;rotation=0;fontFamily=Comic Sans MS;fontSize=16;" vertex="1" connectable="0" parent="V-lV2F8jwq8Me4-6kI_O-21">
          <mxGeometry x="0.0245" y="2" relative="1" as="geometry">
            <mxPoint x="-5" y="-13" as="offset" />
          </mxGeometry>
        </mxCell>
        <mxCell id="V-lV2F8jwq8Me4-6kI_O-87" value="" style="edgeStyle=orthogonalEdgeStyle;rounded=0;orthogonalLoop=1;jettySize=auto;html=1;fillColor=#d5e8d4;strokeColor=#82b366;" edge="1" parent="1" source="V-lV2F8jwq8Me4-6kI_O-36" target="V-lV2F8jwq8Me4-6kI_O-86">
          <mxGeometry relative="1" as="geometry" />
        </mxCell>
        <mxCell id="V-lV2F8jwq8Me4-6kI_O-89" value="" style="edgeStyle=orthogonalEdgeStyle;rounded=0;orthogonalLoop=1;jettySize=auto;html=1;entryX=1;entryY=0.5;entryDx=0;entryDy=0;fillColor=#d5e8d4;strokeColor=#82b366;" edge="1" parent="1" source="V-lV2F8jwq8Me4-6kI_O-36" target="V-lV2F8jwq8Me4-6kI_O-88">
          <mxGeometry relative="1" as="geometry" />
        </mxCell>
        <mxCell id="V-lV2F8jwq8Me4-6kI_O-91" value="" style="edgeStyle=orthogonalEdgeStyle;rounded=0;orthogonalLoop=1;jettySize=auto;html=1;fillColor=#d5e8d4;strokeColor=#82b366;" edge="1" parent="1" source="V-lV2F8jwq8Me4-6kI_O-36" target="V-lV2F8jwq8Me4-6kI_O-90">
          <mxGeometry relative="1" as="geometry" />
        </mxCell>
        <mxCell id="V-lV2F8jwq8Me4-6kI_O-36" value="" style="whiteSpace=wrap;html=1;rounded=1;arcSize=50;align=center;verticalAlign=middle;container=1;recursiveResize=0;strokeWidth=1;autosize=1;spacing=4;treeFolding=1;" vertex="1" parent="1">
          <mxGeometry x="219" y="319" height="1" as="geometry" />
        </mxCell>
        <mxCell id="V-lV2F8jwq8Me4-6kI_O-37" value="" style="edgeStyle=entityRelationEdgeStyle;startArrow=none;endArrow=none;segment=10;curved=1;strokeWidth=2;strokeColor=#336600;rounded=0;fontSize=12;startSize=8;endSize=8;" edge="1" parent="1" source="V-lV2F8jwq8Me4-6kI_O-7" target="V-lV2F8jwq8Me4-6kI_O-36">
          <mxGeometry relative="1" as="geometry">
            <mxPoint x="187" y="397.5" as="sourcePoint" />
            <mxPoint x="277" y="357.5" as="targetPoint" />
          </mxGeometry>
        </mxCell>
        <mxCell id="V-lV2F8jwq8Me4-6kI_O-38" value="Introduction" style="text;html=1;resizable=0;points=[];align=center;verticalAlign=middle;labelBackgroundColor=none;rotation=50;fontFamily=Comic Sans MS;" vertex="1" connectable="0" parent="V-lV2F8jwq8Me4-6kI_O-37">
          <mxGeometry x="0.0245" y="2" relative="1" as="geometry">
            <mxPoint x="12" y="-7" as="offset" />
          </mxGeometry>
        </mxCell>
        <mxCell id="V-lV2F8jwq8Me4-6kI_O-50" style="jumpStyle=arc;html=1;endArrow=classicThin;endFill=1;jettySize=auto;orthogonalLoop=1;strokeColor=none;strokeWidth=2;fontFamily=Comic Sans MS;fontSize=10;rounded=0;startSize=8;endSize=8;curved=1;" edge="1" parent="1" source="V-lV2F8jwq8Me4-6kI_O-36">
          <mxGeometry relative="1" as="geometry">
            <mxPoint x="568.4932570100009" y="237.09520985894562" as="targetPoint" />
          </mxGeometry>
        </mxCell>
        <mxCell id="V-lV2F8jwq8Me4-6kI_O-52" value="" style="edgeStyle=entityRelationEdgeStyle;startArrow=none;endArrow=none;segment=10;curved=1;strokeWidth=2;strokeColor=#660000;rounded=0;fontSize=12;startSize=8;endSize=8;entryX=1;entryY=0.5;entryDx=0;entryDy=0;exitX=0.5;exitY=1;exitDx=0;exitDy=0;" edge="1" parent="1" source="V-lV2F8jwq8Me4-6kI_O-109" target="V-lV2F8jwq8Me4-6kI_O-7">
          <mxGeometry relative="1" as="geometry">
            <mxPoint x="599" y="-36" as="sourcePoint" />
            <mxPoint x="405.00000000000546" y="287.5" as="targetPoint" />
            <Array as="points">
              <mxPoint x="420" y="299.99" />
            </Array>
          </mxGeometry>
        </mxCell>
        <mxCell id="V-lV2F8jwq8Me4-6kI_O-53" value="Type classification comparison" style="text;html=1;resizable=0;points=[];align=center;verticalAlign=middle;labelBackgroundColor=none;rotation=-30;fontFamily=Comic Sans MS;fontSize=15;" vertex="1" connectable="0" parent="V-lV2F8jwq8Me4-6kI_O-52">
          <mxGeometry x="0.0245" y="2" relative="1" as="geometry">
            <mxPoint x="-10" y="-13" as="offset" />
          </mxGeometry>
        </mxCell>
        <mxCell id="V-lV2F8jwq8Me4-6kI_O-64" value="" style="startArrow=none;endArrow=none;segment=10;strokeWidth=2;strokeColor=#CCCC00;exitX=0.5;exitY=1;curved=1;rounded=0;fontSize=12;startSize=8;endSize=8;exitDx=0;exitDy=0;" edge="1" parent="1" source="V-lV2F8jwq8Me4-6kI_O-7">
          <mxGeometry relative="1" as="geometry">
            <mxPoint x="369" y="508" as="sourcePoint" />
            <mxPoint x="176" y="639" as="targetPoint" />
            <Array as="points">
              <mxPoint x="353" y="455" />
              <mxPoint x="307" y="538" />
              <mxPoint x="287" y="576" />
            </Array>
          </mxGeometry>
        </mxCell>
        <mxCell id="V-lV2F8jwq8Me4-6kI_O-65" value="Cell-cell communication" style="text;html=1;resizable=0;points=[];align=center;verticalAlign=middle;labelBackgroundColor=none;rotation=-45;fontFamily=Comic Sans MS;fontSize=16;" vertex="1" connectable="0" parent="V-lV2F8jwq8Me4-6kI_O-64">
          <mxGeometry x="0.0245" y="2" relative="1" as="geometry">
            <mxPoint x="2" y="-29" as="offset" />
          </mxGeometry>
        </mxCell>
        <mxCell id="V-lV2F8jwq8Me4-6kI_O-80" value="" style="edgeStyle=orthogonalEdgeStyle;rounded=0;orthogonalLoop=1;jettySize=auto;html=1;exitX=0;exitY=0.5;exitDx=0;exitDy=0;fillColor=#d5e8d4;strokeColor=#82b366;" edge="1" parent="1" source="V-lV2F8jwq8Me4-6kI_O-88" target="V-lV2F8jwq8Me4-6kI_O-77">
          <mxGeometry relative="1" as="geometry" />
        </mxCell>
        <mxCell id="V-lV2F8jwq8Me4-6kI_O-85" value="" style="edgeStyle=orthogonalEdgeStyle;rounded=0;orthogonalLoop=1;jettySize=auto;html=1;exitX=0;exitY=0.5;exitDx=0;exitDy=0;fillColor=#d5e8d4;strokeColor=#82b366;" edge="1" parent="1" source="V-lV2F8jwq8Me4-6kI_O-88" target="V-lV2F8jwq8Me4-6kI_O-84">
          <mxGeometry relative="1" as="geometry">
            <Array as="points">
              <mxPoint x="37" y="192" />
              <mxPoint x="37" y="212" />
              <mxPoint x="-50" y="212" />
            </Array>
          </mxGeometry>
        </mxCell>
        <mxCell id="V-lV2F8jwq8Me4-6kI_O-77" value="&lt;span style=&quot;font-family: &amp;quot;Comic Sans MS&amp;quot;; font-size: 10px; text-wrap: nowrap;&quot;&gt;Important&amp;amp;Feasible&lt;/span&gt;" style="whiteSpace=wrap;html=1;rounded=1;arcSize=50;strokeWidth=1;autosize=1;spacing=4;fillColor=#d5e8d4;strokeColor=#82b366;" vertex="1" parent="1">
          <mxGeometry x="-107.5" y="127" width="115" height="30" as="geometry" />
        </mxCell>
        <mxCell id="V-lV2F8jwq8Me4-6kI_O-84" value="&lt;span style=&quot;font-family: &amp;quot;Comic Sans MS&amp;quot;; font-size: 10px; text-wrap: nowrap;&quot;&gt;Important&amp;amp;Hard&lt;/span&gt;" style="whiteSpace=wrap;html=1;rounded=1;arcSize=50;strokeWidth=1;autosize=1;spacing=4;fillColor=#d5e8d4;strokeColor=#82b366;" vertex="1" parent="1">
          <mxGeometry x="-100" y="244" width="112" height="30" as="geometry" />
        </mxCell>
        <mxCell id="V-lV2F8jwq8Me4-6kI_O-93" value="" style="edgeStyle=orthogonalEdgeStyle;rounded=0;orthogonalLoop=1;jettySize=auto;html=1;" edge="1" parent="1" source="V-lV2F8jwq8Me4-6kI_O-86" target="V-lV2F8jwq8Me4-6kI_O-92">
          <mxGeometry relative="1" as="geometry" />
        </mxCell>
        <mxCell id="V-lV2F8jwq8Me4-6kI_O-95" value="" style="edgeStyle=orthogonalEdgeStyle;rounded=0;orthogonalLoop=1;jettySize=auto;html=1;" edge="1" parent="1" source="V-lV2F8jwq8Me4-6kI_O-86" target="V-lV2F8jwq8Me4-6kI_O-94">
          <mxGeometry relative="1" as="geometry" />
        </mxCell>
        <mxCell id="V-lV2F8jwq8Me4-6kI_O-97" value="" style="edgeStyle=orthogonalEdgeStyle;rounded=0;orthogonalLoop=1;jettySize=auto;html=1;" edge="1" parent="1" source="V-lV2F8jwq8Me4-6kI_O-86" target="V-lV2F8jwq8Me4-6kI_O-96">
          <mxGeometry relative="1" as="geometry" />
        </mxCell>
        <mxCell id="V-lV2F8jwq8Me4-6kI_O-86" value="Overview" style="whiteSpace=wrap;html=1;rounded=1;arcSize=50;strokeWidth=1;autosize=1;spacing=4;fillColor=#d5e8d4;strokeColor=#82b366;" vertex="1" parent="1">
          <mxGeometry x="170" y="28" width="72" height="30" as="geometry" />
        </mxCell>
        <mxCell id="V-lV2F8jwq8Me4-6kI_O-88" value="Questions" style="whiteSpace=wrap;html=1;rounded=1;arcSize=50;strokeWidth=1;autosize=1;spacing=4;fillColor=#d5e8d4;strokeColor=#82b366;" vertex="1" parent="1">
          <mxGeometry x="54" y="177" width="76" height="30" as="geometry" />
        </mxCell>
        <mxCell id="V-lV2F8jwq8Me4-6kI_O-90" value="Aims" style="whiteSpace=wrap;html=1;rounded=1;arcSize=50;strokeWidth=1;autosize=1;spacing=4;fillColor=#d5e8d4;strokeColor=#82b366;" vertex="1" parent="1">
          <mxGeometry x="98" y="337" width="49" height="30" as="geometry" />
        </mxCell>
        <mxCell id="V-lV2F8jwq8Me4-6kI_O-92" value="GSC features" style="shape=process;whiteSpace=wrap;html=1;backgroundOutline=1;fillColor=#d5e8d4;strokeColor=#82b366;rounded=1;arcSize=50;strokeWidth=1;autosize=1;spacing=4;fontSize=9;" vertex="1" parent="1">
          <mxGeometry x="287" y="-17" width="77" height="27" as="geometry" />
        </mxCell>
        <mxCell id="V-lV2F8jwq8Me4-6kI_O-94" value="Sequencing tech and datasets accumulating" style="shape=process;whiteSpace=wrap;html=1;backgroundOutline=1;fillColor=#d5e8d4;strokeColor=#82b366;rounded=1;arcSize=50;strokeWidth=1;autosize=1;spacing=4;fontSize=9;" vertex="1" parent="1">
          <mxGeometry x="101" y="-67" width="123" height="27" as="geometry" />
        </mxCell>
        <mxCell id="V-lV2F8jwq8Me4-6kI_O-96" value="Computational methods" style="shape=process;whiteSpace=wrap;html=1;backgroundOutline=1;fillColor=#d5e8d4;strokeColor=#82b366;rounded=1;arcSize=50;strokeWidth=1;autosize=1;spacing=4;fontSize=9;" vertex="1" parent="1">
          <mxGeometry x="-22" y="-11" width="117" height="27" as="geometry" />
        </mxCell>
        <mxCell id="V-lV2F8jwq8Me4-6kI_O-98" value="&lt;font size=&quot;1&quot;&gt;Inquering what exactaly relationships between cancer and development in differentiation commitments&lt;/font&gt;" style="shape=note;whiteSpace=wrap;html=1;backgroundOutline=1;darkOpacity=0.05;fillColor=#f8cecc;strokeColor=#b85450;" vertex="1" parent="1">
          <mxGeometry x="87" y="73" width="102" height="82" as="geometry" />
        </mxCell>
        <mxCell id="V-lV2F8jwq8Me4-6kI_O-100" value="" style="endArrow=none;dashed=1;html=1;rounded=0;entryX=0.5;entryY=1;entryDx=0;entryDy=0;exitX=0;exitY=0;exitDx=65;exitDy=15;exitPerimeter=0;" edge="1" parent="1" source="V-lV2F8jwq8Me4-6kI_O-98" target="V-lV2F8jwq8Me4-6kI_O-86">
          <mxGeometry width="50" height="50" relative="1" as="geometry">
            <mxPoint x="124" y="131" as="sourcePoint" />
            <mxPoint x="174" y="81" as="targetPoint" />
          </mxGeometry>
        </mxCell>
        <mxCell id="V-lV2F8jwq8Me4-6kI_O-101" value="" style="endArrow=none;dashed=1;html=1;rounded=0;exitX=0.5;exitY=0;exitDx=0;exitDy=0;entryX=0.5;entryY=1;entryDx=0;entryDy=0;entryPerimeter=0;" edge="1" parent="1" source="V-lV2F8jwq8Me4-6kI_O-88" target="V-lV2F8jwq8Me4-6kI_O-98">
          <mxGeometry width="50" height="50" relative="1" as="geometry">
            <mxPoint x="124" y="131" as="sourcePoint" />
            <mxPoint x="174" y="81" as="targetPoint" />
          </mxGeometry>
        </mxCell>
        <mxCell id="V-lV2F8jwq8Me4-6kI_O-102" value="" style="shape=waypoint;sketch=0;size=6;pointerEvents=1;points=[];fillColor=#f8cecc;resizable=0;rotatable=0;perimeter=centerPerimeter;snapToPoint=1;strokeColor=#b85450;strokeWidth=2;" vertex="1" parent="1">
          <mxGeometry x="647" y="433" width="20" height="20" as="geometry" />
        </mxCell>
        <mxCell id="V-lV2F8jwq8Me4-6kI_O-107" value="" style="edgeStyle=orthogonalEdgeStyle;rounded=0;orthogonalLoop=1;jettySize=auto;html=1;curved=1;endArrow=none;endFill=0;strokeWidth=2;" edge="1" parent="1" target="V-lV2F8jwq8Me4-6kI_O-105">
          <mxGeometry relative="1" as="geometry">
            <mxPoint x="356" y="429" as="sourcePoint" />
            <mxPoint x="388" y="190" as="targetPoint" />
            <Array as="points">
              <mxPoint x="356" y="457" />
              <mxPoint x="378" y="457" />
              <mxPoint x="378" y="514" />
              <mxPoint x="488" y="514" />
              <mxPoint x="488" y="601" />
              <mxPoint x="588" y="601" />
            </Array>
          </mxGeometry>
        </mxCell>
        <mxCell id="V-lV2F8jwq8Me4-6kI_O-108" value="Links to phenotypes &amp;amp; application" style="edgeLabel;html=1;align=center;verticalAlign=middle;resizable=0;points=[];fontSize=16;rotation=45;" vertex="1" connectable="0" parent="V-lV2F8jwq8Me4-6kI_O-107">
          <mxGeometry x="0.1405" y="-2" relative="1" as="geometry">
            <mxPoint x="24" y="-12" as="offset" />
          </mxGeometry>
        </mxCell>
        <mxCell id="V-lV2F8jwq8Me4-6kI_O-105" value="" style="shape=waypoint;sketch=0;size=6;pointerEvents=1;points=[];fillColor=#f8cecc;resizable=0;rotatable=0;perimeter=centerPerimeter;snapToPoint=1;strokeColor=#b85450;strokeWidth=2;" vertex="1" parent="1">
          <mxGeometry x="578" y="727" width="20" height="20" as="geometry" />
        </mxCell>
        <mxCell id="V-lV2F8jwq8Me4-6kI_O-109" value="&lt;font style=&quot;font-size: 18px;&quot;&gt;Planning list&lt;/font&gt;" style="swimlane;whiteSpace=wrap;html=1;" vertex="1" parent="1">
          <mxGeometry x="629" y="-26" width="492" height="137" as="geometry" />
        </mxCell>
        <mxCell id="V-lV2F8jwq8Me4-6kI_O-111" value="&lt;ul style=&quot;font-size: 14px;&quot;&gt;&lt;li&gt;对normal细胞进行注释&lt;/li&gt;&lt;li&gt;在表达谱水平将CNAs的PLC和之前几种分类方式进行比较，整理好标签&lt;/li&gt;&lt;li&gt;想想如何利用pseudotime的信息同不同的标签相关联&lt;/li&gt;&lt;li&gt;Figure1修改完成&lt;/li&gt;&lt;li&gt;写这部分的方法和结果&lt;/li&gt;&lt;/ul&gt;" style="text;html=1;align=left;verticalAlign=middle;resizable=0;points=[];autosize=1;strokeColor=none;fillColor=none;" vertex="1" parent="V-lV2F8jwq8Me4-6kI_O-109">
          <mxGeometry x="4" y="21" width="500" height="124" as="geometry" />
        </mxCell>
      </root>
    </mxGraphModel>
  </diagram>
</mxfile>
